<?xml version="1.0" encoding="UTF-8" standalone="no"?>
<!--
  - Copyright (C) 2024 Igor Kosulin
  - Last modified 4/16/24, 6:35 PM
  - Licensed under the Apache License, Version 2.0 (the "License");
  - you may not use this file except in compliance with the License.
  - You may obtain a copy of the License at
  -
  -      http://www.apache.org/licenses/LICENSE-2.0
  -
  - Unless required by applicable law or agreed to in writing, software
  - distributed under the License is distributed on an "AS IS" BASIS,
  - WITHOUT WARRANTIES OR CONDITIONS OF ANY KIND, either express or implied.
  - See the License for the specific language governing permissions and
  - limitations under the License.
  -->

<svg xmlns:cc="http://creativecommons.org/ns#" xmlns:dc="http://purl.org/dc/elements/1.1/"
    xmlns:inkscape="http://www.inkscape.org/namespaces/inkscape"
    xmlns:rdf="http://www.w3.org/1999/02/22-rdf-syntax-ns#"
    xmlns:sodipodi="http://sodipodi.sourceforge.net/DTD/sodipodi-0.dtd" aria-label="Loading..."
    class="  By4nA" id="svg3817" version="1.1" viewBox="0 0 100 100"
    xmlns="http://www.w3.org/2000/svg" inkscape:version="0.92.4 (5da689c313, 2019-01-14)"
    sodipodi:docname="loading_spinner.svg">
    <metadata id="metadata3823">
        <rdf:RDF>
            <cc:Work rdf:about="">
                <dc:format>image/svg+xml</dc:format>
                <dc:type rdf:resource="http://purl.org/dc/dcmitype/StillImage" />
                <dc:title></dc:title>
            </cc:Work>
        </rdf:RDF>
    </metadata>
    <defs id="defs3821" />
    <sodipodi:namedview bordercolor="#666666" borderopacity="1" gridtolerance="10"
        guidetolerance="10" id="namedview3819" objecttolerance="10" pagecolor="#ffffff"
        showgrid="false" inkscape:current-layer="svg3817" inkscape:cx="50" inkscape:cy="50"
        inkscape:pageopacity="0" inkscape:pageshadow="2" inkscape:window-height="480"
        inkscape:window-maximized="0" inkscape:window-width="640" inkscape:window-x="161"
        inkscape:window-y="162" inkscape:zoom="2.36" />
    <rect fill="#555555" height="6" id="rect3793" opacity="0" rx="3" ry="3"
        transform="rotate(-90 50 50)" width="25" x="72" y="47" />
    <rect fill="#555555" height="6" id="rect3795" opacity="0.08333333333333333" rx="3" ry="3"
        transform="rotate(-60 50 50)" width="25" x="72" y="47" />
    <rect fill="#555555" height="6" id="rect3797" opacity="0.16666666666666666" rx="3" ry="3"
        transform="rotate(-30 50 50)" width="25" x="72" y="47" />
    <rect fill="#555555" height="6" id="rect3799" opacity="0.25" rx="3" ry="3"
        transform="rotate(0 50 50)" width="25" x="72" y="47" />
    <rect fill="#555555" height="6" id="rect3801" opacity="0.3333333333333333" rx="3" ry="3"
        transform="rotate(30 50 50)" width="25" x="72" y="47" />
    <rect fill="#555555" height="6" id="rect3803" opacity="0.4166666666666667" rx="3" ry="3"
        transform="rotate(60 50 50)" width="25" x="72" y="47" />
    <rect fill="#555555" height="6" id="rect3805" opacity="0.5" rx="3" ry="3"
        transform="rotate(90 50 50)" width="25" x="72" y="47" />
    <rect fill="#555555" height="6" id="rect3807" opacity="0.5833333333333334" rx="3" ry="3"
        transform="rotate(120 50 50)" width="25" x="72" y="47" />
    <rect fill="#555555" height="6" id="rect3809" opacity="0.6666666666666666" rx="3" ry="3"
        transform="rotate(150 50 50)" width="25" x="72" y="47" />
    <rect fill="#555555" height="6" id="rect3811" opacity="0.75" rx="3" ry="3"
        transform="rotate(180 50 50)" width="25" x="72" y="47" />
    <rect fill="#555555" height="6" id="rect3813" opacity="0.8333333333333334" rx="3" ry="3"
        transform="rotate(210 50 50)" width="25" x="72" y="47" />
    <rect fill="#555555" height="6" id="rect3815" opacity="0.9166666666666666" rx="3" ry="3"
        transform="rotate(240 50 50)" width="25" x="72" y="47" />
</svg>
